<svg width="83" height="40" viewBox="0 0 83 40" fill="none" xmlns="http://www.w3.org/2000/svg">
<g id="dentistas/logo/principal">
<path id="Vector" d="M68.7952 0H70.2492V12.0232H68.7952V0ZM64.7857 6.50185V6.12784C64.7857 5.34179 64.5999 4.78394 64.2285 4.4374C63.8571 4.09086 63.2451 3.92816 62.3905 3.92816C60.8837 3.92816 60.0185 4.46206 59.7948 5.52985L58.4232 5.28896C58.4749 4.89139 58.6283 4.51396 58.8686 4.1933C59.109 3.87267 59.4281 3.61971 59.7948 3.45906C60.6415 3.05931 61.5685 2.86045 62.5044 2.87797C63.9198 2.87797 64.8981 3.16393 65.4398 3.73587C65.7657 4.06717 65.986 4.4878 66.0729 4.94453C66.1696 5.51119 66.2141 6.08554 66.2059 6.66033V10.1426C66.1829 10.7752 66.2584 11.4075 66.4296 12.0169H64.9714L64.773 10.3539C64.1399 11.5732 63.0426 12.1796 61.4641 12.1796C60.6179 12.2091 59.7858 11.9564 59.0984 11.4612C58.7906 11.232 58.5432 10.9307 58.3784 10.5837C58.2136 10.2367 58.1362 9.85456 58.153 9.47068C58.1598 8.95053 58.3311 8.44596 58.6426 8.02958C58.9657 7.57399 59.4135 7.22172 59.932 7.01532C60.6727 6.67301 61.8946 6.50185 63.5849 6.50185H64.7857ZM64.7857 7.55837H63.587C61.0393 7.55837 59.7659 8.22751 59.7674 9.56577C59.7579 9.79351 59.8071 10.0199 59.9096 10.2233C60.0124 10.4267 60.1654 10.6005 60.3541 10.7279C60.777 11.0101 61.2769 11.154 61.7848 11.14C62.3341 11.1498 62.875 11.0032 63.3443 10.7174C63.7877 10.4446 64.1515 10.0598 64.3995 9.60169C64.6474 9.14453 64.7766 8.63225 64.7751 8.11199L64.7857 7.55837ZM56.9333 12.1035L55.5089 12.1881C54.5191 12.1881 53.8206 11.9429 53.426 11.4464C53.0314 10.9498 52.8288 10.2377 52.8288 9.29107V4.15003H51.1406V3.02588H52.8288V0.830428L54.2828 0.690967V3.02588H56.3931V4.15003H54.2828V9.50872C54.2828 10.0623 54.3931 10.468 54.6141 10.7258C54.8251 10.9857 55.2282 11.1146 55.7937 11.1146L56.9333 11.0026V12.1035ZM43.6216 4.76704H43.6512C43.9171 4.20868 44.3328 3.73534 44.8519 3.39989C45.3763 3.05976 45.9894 2.88256 46.614 2.89065C47.1428 2.8676 47.6683 2.98411 48.1378 3.2285C48.6076 3.4729 49.0047 3.8366 49.2898 4.28315C49.6001 4.78394 49.752 5.72213 49.752 7.09562V12.0232H48.298V6.50607C48.298 5.70312 48.2121 5.15725 48.0406 4.86846C47.8665 4.61221 47.6246 4.40955 47.3421 4.28315C47.0424 4.14409 46.7164 4.07197 46.3861 4.07184C46.0179 4.06392 45.6526 4.13965 45.3179 4.29338C44.983 4.44708 44.6873 4.67476 44.4531 4.95932C43.955 5.51294 43.7081 6.30322 43.7081 7.34284V12.0232H42.2309V3.10618H43.628L43.6216 4.76704ZM38.4071 6.63708C38.4333 5.93335 38.1988 5.24475 37.7487 4.70364C37.3013 4.1944 36.6788 3.94083 35.8706 3.94083C35.5171 3.93185 35.1657 3.99886 34.8403 4.13739C34.5149 4.2759 34.2228 4.48268 33.984 4.74379C33.4906 5.256 33.2061 5.93422 33.1863 6.64554L38.4071 6.63708ZM39.8674 9.5552C39.5958 10.3575 39.0524 11.0394 38.3311 11.4823C37.5871 11.9528 36.7231 12.1979 35.8431 12.1881C34.4657 12.1881 33.3931 11.7464 32.6249 10.8632C31.8473 9.94895 31.4373 8.77767 31.4748 7.57739C31.4723 6.9698 31.5721 6.36617 31.7703 5.79186C31.961 5.2433 32.2548 4.73625 32.6355 4.29794C33.0177 3.85771 33.4906 3.50586 34.0219 3.26677C34.605 3.00814 35.2373 2.87977 35.8748 2.89065C36.5055 2.87757 37.1314 3.00308 37.7086 3.25832C38.2142 3.48374 38.658 3.82806 39.0022 4.26202C39.3456 4.71347 39.6017 5.22514 39.7577 5.77073C39.9301 6.38969 40.0147 7.0299 40.0088 7.67248H33.1314C33.1314 8.5177 33.2644 9.20232 33.526 9.6841C33.7531 10.1105 34.1021 10.4592 34.5284 10.6857C34.9631 10.9266 35.4517 11.0538 35.9486 11.0555C36.5104 11.0693 37.0624 10.9068 37.5271 10.5906C37.9735 10.2725 38.3105 9.82362 38.4915 9.30586L39.8674 9.5552ZM28.0309 0H29.4848V12.0232H28.1406V10.4427H28.1153C27.4991 11.6077 26.5093 12.1895 25.1461 12.1881C24.5746 12.1993 24.0095 12.0676 23.5018 11.8049C22.9938 11.5422 22.5595 11.1568 22.2381 10.6836C21.6494 9.86371 21.3539 8.83254 21.3539 7.57739C21.3328 6.40361 21.6886 5.25403 22.369 4.29794C23.0373 3.35975 24.0044 2.89065 25.2706 2.89065C26.3834 2.89065 27.3055 3.36539 28.0372 4.31484L28.0309 0ZM28.0309 6.72583C28.0309 5.9926 27.8599 5.41363 27.5159 4.98468C27.3024 4.65078 26.9958 4.387 26.6338 4.2261C26.2496 4.04816 25.8311 3.95656 25.4078 3.95774C24.5995 3.95774 23.9686 4.33386 23.5085 5.08399C23.1287 5.66297 22.9387 6.42859 22.9387 7.38088C22.9204 8.26472 23.1076 9.14073 23.4853 9.93978C23.8504 10.6857 24.4729 11.0555 25.3571 11.0555C25.7705 11.0698 26.181 10.9791 26.5501 10.7918C26.9189 10.6045 27.2346 10.3266 27.4674 9.98415C27.8593 9.45025 28.0602 8.7996 28.0372 8.13735L28.0309 6.72583Z" fill="#FFA33E"/>
<path id="Vector_2" d="M62.0107 17.3271L62.5467 17.3905C62.705 17.83 62.8274 18.447 62.5467 18.9055C62.3251 19.269 59.6345 21.2109 59.1703 21.3059C59.6113 19.7972 60.7213 18.0307 62.0086 17.3271H62.0107ZM32.3338 17.0355C32.5075 17.0107 32.6845 17.0433 32.8381 17.1284C32.9563 17.4137 33.1209 18.092 32.9331 18.4871C32.5237 19.3493 30.5211 20.4163 29.6854 20.9805L29.5588 20.9488V20.9193C30.0334 19.355 31.0085 17.9904 32.3338 17.0355ZM11.653 6.86537C6.9302 9.89971 4.07288 13.1897 1.33373 18.2019C-0.168795 20.9488 -0.700587 25.0291 1.33373 27.5817C2.51338 29.0608 4.61944 29.887 6.97663 29.6821C7.26996 26.9224 10.218 25.7243 12.2418 27.6218C14.7361 25.8258 16.9139 23.3957 18.5832 21.0122C19.288 20.0085 19.8979 18.84 20.7272 17.961C21.2533 18.1684 21.7499 18.444 22.2044 18.7808C22.1664 19.3852 21.373 20.4311 21.0691 20.8939C20.3569 22.051 19.7651 23.278 19.3028 24.5558C19.0348 25.2447 18.6697 26.3287 19.02 27.1781C19.2859 27.812 20.3748 28.3044 21.3835 27.9663C23.1372 27.381 24.3379 26.1807 25.7054 25.1876C25.8004 25.4813 25.8953 25.7771 25.9882 26.073C26.3121 26.6984 26.7901 27.2307 27.3767 27.6197C27.9655 27.9895 28.5901 28.1564 29.5524 28.1564C32.587 28.1564 33.8047 26.1765 35.4612 24.7756H35.4929V24.934C35.2819 25.475 34.7817 26.2906 34.9864 27.0471C35.2755 28.1036 36.8498 28.5643 37.7002 27.7106C38.2552 27.1527 38.5444 26.2927 38.9938 25.6271C40.1925 23.8247 41.3764 22.0518 42.6826 20.3847C43.2017 19.7212 43.761 18.9731 44.5122 18.5526L44.6072 18.5843L41.925 25.1834C41.4502 26.4005 41.5874 27.5965 42.6193 28.1205C42.958 28.3033 43.3526 28.353 43.7257 28.2596C44.099 28.1662 44.424 27.9365 44.6367 27.6155L45.3627 26.1934L48.5787 21.4264L50.4358 19.2457L51.0689 18.7386L51.3854 18.7069C50.523 20.8876 49.6607 23.0667 48.7982 25.2447C48.2706 26.652 48.7476 27.9113 50.0644 28.3086C51.7062 28.803 53.7089 26.7132 54.6057 26.0962C54.8906 25.9018 55.0594 25.5849 55.4878 25.5278V25.5912C55.644 25.9842 55.6566 26.3477 55.8677 26.6667C56.9017 28.2283 59.337 29.1115 61.5443 27.9599C63.2115 27.0915 64.3405 25.8659 65.5813 24.5791C66.5436 23.5817 67.5439 22.5653 68.3563 21.4222C68.7784 20.8305 69.9306 18.7196 70.4054 18.4216C70.9463 18.5632 71.4445 18.8345 71.8573 19.2119C71.8172 19.8458 71.2875 20.3593 71.0132 20.7904C70.1691 22.0772 69.2279 23.5246 68.6475 24.989C68.0461 26.5146 68.2529 27.7634 69.6563 28.3065C70.6882 28.7037 71.7497 28.2283 72.4334 27.831C74.1153 26.8628 75.6018 25.5887 76.8165 24.074C77.2385 23.55 78.5532 21.8722 77.5424 21.1686C76.7785 21.1813 76.2382 22.166 75.8689 22.6224C75.3646 23.2563 73.115 25.0418 72.2118 25.1792L72.1485 25.1475L72.0535 24.989C72.1021 24.0423 73.4506 22.1765 73.9148 21.4539C74.2075 20.8749 74.5021 20.2959 74.799 19.7169C75.2211 18.9668 75.7887 17.8405 75.0818 16.97C74.4973 16.2494 72.465 15.7233 71.5492 15.2647L70.7621 14.7576C70.5025 14.4597 70.6375 14.0032 70.2577 13.811C69.3714 13.3376 68.2951 14.6393 68.1474 15.233C67.9364 16.0402 68.4618 16.9826 68.3057 17.475C68.1495 17.9673 67.7507 18.4892 67.4848 18.895C66.2059 20.8432 64.9778 22.7956 63.165 24.2008C62.5319 24.6826 60.4533 26.0371 59.3792 25.0841C59.2184 24.9607 59.0951 24.7948 59.0228 24.6053C58.9506 24.4159 58.9322 24.2099 58.9698 24.0106C59.337 23.5077 59.9468 23.3028 60.4217 22.9055C61.8123 21.7391 64.5557 20.5812 65.499 19.1485C66.5541 17.5532 65.499 15.7676 64.1737 15.2964C62.9371 14.8464 61.4304 15.2521 60.5462 15.7064C58.3029 16.8707 56.8046 18.9436 55.8803 21.4222C55.6313 22.0878 55.5469 22.9668 55.1227 23.4739C54.7724 23.8965 54.1816 24.1247 53.7342 24.4523C53.4451 24.6636 52.8246 25.2214 52.411 25.1475C52.411 24.4797 52.6938 24.0487 52.8837 23.569C53.578 21.8025 54.3061 20.167 54.9328 18.4216C55.2979 17.4074 55.8276 16.1438 54.8378 15.3894C53.9937 14.7555 52.5904 15.157 51.8835 15.5796C50.6416 16.3539 49.5421 17.3367 48.6336 18.485C48.3593 18.8273 47.5785 20.0402 47.2155 20.1586V20.0318C47.7768 18.9753 48.3677 17.9842 48.6674 16.6847C48.8953 15.6852 47.4877 14.6963 46.4263 14.9478C44.4827 15.4084 42.6425 17.4686 41.5726 18.8633L40.374 20.3804L40.3107 20.3487V20.317C40.8446 19.3619 41.5536 17.7814 41.7879 16.653C42.0917 15.2225 40.5787 14.7069 39.2977 14.9161L38.7617 14.9478C38.1413 15.2204 37.7066 18.3118 37.3415 19.1168C37.0988 19.662 36.9722 20.4037 36.6789 20.9467C36.2188 21.7645 34.1529 23.4549 33.3425 24.0128C32.7094 24.4354 30.3881 25.8511 29.5271 24.6763C29.4142 24.5484 29.3304 24.3975 29.2817 24.234C29.2329 24.0707 29.2201 23.8984 29.2443 23.7296C30.5654 22.3477 32.7031 21.4961 34.1951 20.2558C34.7268 19.8141 35.3051 19.5585 35.7081 18.9879C36.9047 17.3081 35.8706 15.4803 34.3217 14.9457C32.9584 14.4745 31.42 15.0894 30.5991 15.5796C28.4528 16.888 26.8511 18.9293 26.0895 21.3271C25.9101 21.8849 25.7328 22.4428 25.5534 23.0006C25.3044 23.4486 23.9961 24.1311 23.5044 24.4206C23.1878 24.6086 22.6202 25.0672 22.1475 24.8643C22.1939 24.1395 22.7953 23.4739 23.0929 22.9372C23.7956 21.6694 24.5532 20.4945 25.1757 19.2119C25.4754 18.5928 26.1106 17.42 25.4901 16.6213C24.7663 15.6895 23.0169 15.4422 21.9575 14.8527C21.6452 14.6794 21.143 14.4787 20.9805 14.1596C20.7821 13.7645 20.9066 13.494 20.5078 13.3144C19.3703 13.0038 18.56 14.1807 18.3975 15.0196C18.2519 15.7529 18.752 16.4988 18.6803 16.8516L18.1485 17.887C16.1247 21.0418 13.586 23.9367 10.0365 25.568C8.42006 26.3075 6.19793 26.8041 4.5498 25.7243C2.78771 24.5706 2.79404 22.2948 3.47778 20.0402C4.49915 16.6593 7.67513 13.1897 10.1315 11.1654C11.0418 10.3865 12.0906 9.78645 13.2231 9.3968C13.6662 9.25734 14.4892 9.1855 14.7678 9.55528C15.5676 10.6118 13.4615 12.1755 13.3792 13.0291C13.9743 14.2547 15.9875 12.8812 16.5024 12.4903C17.7686 11.5394 19.2986 8.78402 17.9206 6.8696C16.7114 5.17916 13.0964 5.93774 11.6467 6.8696" fill="#0B4687"/>
<path id="Vector_3" d="M11.7121 29.2192C12.4908 30.9096 14.274 32.3338 16.8211 33.6038C28.8835 39.6112 49.5896 37.7749 62.5003 33.8299C69.1646 31.7929 74.3812 29.3058 80.271 25.608C80.5749 25.4178 80.7311 25.3164 80.8366 25.2488C80.0705 23.8774 78.7136 24.1542 78.0489 24.1775C80.9421 21.9503 85.0424 27.4928 81.3916 27.7168C81.3869 26.9861 81.2525 26.262 80.9948 25.5784C76.6582 29.8045 67.5566 33.9186 62.1922 35.721C48.8531 40.2028 27.0117 42.4828 14.5273 35.8415C11.6214 34.2968 9.66305 32.4479 8.69865 30.3476C7.73425 28.2472 10.5557 26.7047 11.7121 29.2255" fill="#FFA33E"/>
</g>
</svg>
